<?xml version="1.0" encoding="utf-8"?>
<!-- Svg Vector Icons : http://www.onlinewebfonts.com/icon -->
<!DOCTYPE svg PUBLIC "-//W3C//DTD SVG 1.1//EN" "http://www.w3.org/Graphics/SVG/1.1/DTD/svg11.dtd">
<svg version="1.1" xmlns="http://www.w3.org/2000/svg" xmlns:xlink="http://www.w3.org/1999/xlink" x="0px" y="0px" viewBox="0 0 1000 1000" enable-background="new 0 0 1000 1000" xml:space="preserve">
<metadata> Svg Vector Icons : http://www.onlinewebfonts.com/icon </metadata>
<g><g><path d="M500,10C229.4,10,10,229.4,10,500c0,270.6,219.4,490,490,490s490-219.4,490-490C990,229.4,770.6,10,500,10z M799.3,693.2c-5.6,46.1-11.4,92.1-16.5,138.3c-1.9,17.2-1.3,17.1-18.9,16.9c-134.4-1.7-268.8-3.8-403.2-4.6c-48.1-0.3-96.3,2.9-144.5,4.4c-6.4,0.2-12.7,0-20.3,0c0-13.4,0-26.4,0-41.4c17.2-3.4,35.4-6.8,53.5-10.7c7.4-1.6,14.8-3.9,21.9-6.8c10.6-4.3,17.3-12.2,18.8-23.9c0.7-5.5,1.8-11,1.8-16.5c0.9-100.3,2.2-200.5,2.3-300.8c0.1-62.3-1.5-124.6-2.5-186.8c-0.6-35.3-9.9-46.2-44.3-52.8c-14.6-2.8-29.4-5-43.8-8.4c-3.5-0.8-8.4-5.1-8.7-8.1c-1-11.4-0.4-22.8-0.4-35.3c192.8,3.2,384.5,11.3,577.9-5.4c-4,65.4-8.1,131-12.2,197.7c-11.7,0-22.5,0.9-32.9-0.5c-3.7-0.5-8.3-6.2-9.6-10.4c-5.9-19.5-10.3-39.5-16.2-59.1c-3.5-11.3-8.1-22.5-13.5-33.1c-12.1-24-30.3-36.9-59-36.4c-69.1,1.2-138.3,0.4-207.4,0.4c-17.6,0-18.1,0.6-18.1,17.8c-0.1,77.7-0.2,155.4-0.2,233c0,4.2,0,8.5,0,13.8c30.6,0,59.5,0.5,88.4-0.2c18.7-0.4,37.4-2.3,56.1-3.8c25.6-2.1,34.6-9.6,41.1-34.2c4.8-18.5,9.1-37.1,13.3-55.8c1.6-7.4,5-10.8,13.1-10.2c10.2,0.7,20.4,0.2,32.1,0.2c0,6.8,0.1,12.9,0,19c-0.6,72.9-1.4,145.8-1.6,218.7c0,9.7-2.3,13.5-12.7,13.6c-30.6,0.2-30.6,0.6-37.8-29.3c-2.6-10.8-5.2-21.5-8-32.2c-6.5-24.6-24.9-33.7-48-34.4c-43.5-1.5-87-1.9-130.5-2.7c-1.2,0-2.4,0.6-4.7,1.3c-0.2,4.8-0.6,9.8-0.6,14.8c-0.1,64.9-0.2,129.8-0.2,194.6c0,40.3,15.2,59.9,55.6,61c62.2,1.8,124.5,0.5,186.8-1.4c37.6-1.1,63.4-23.2,79.6-55.9c13.1-26.7,25.2-54.1,36.3-81.7c4.9-12.2,11.3-17.9,24.6-15.9c5.7,0.9,11.8,0.1,19.8,0.1C803.4,659.1,801.4,676.2,799.3,693.2z"/></g><g></g><g></g><g></g><g></g><g></g><g></g><g></g><g></g><g></g><g></g><g></g><g></g><g></g><g></g><g></g></g>
</svg>